# xmcd
#
# Track frame offsets:
#	150
#	20414
#	38534
#	55516
#	68015
#	82907
#	99323
#	115965
#	127661
#	139070
#	156003
#	175949
#	188008
#	199524
#	218280
#	244613
#	267314
#	287313
#	303194
#	314933
#	330130
#	342592
#
# Disc length: 4762 seconds
#
# Revision: 1
# Processed by: cddbd v1.5.1PL2 Copyright (c) Steve Scherf et al.
# Submitted via: audiograbber 1.80
#
DISCID=19129816
DTITLE=Spaleny Petr - Obycejny muz CD2
DYEAR=1900
DGENRE=
TTITLE0=Dite Stesteny
TTITLE1=Kdyz Ji Potkas
TTITLE2=Hrac
TTITLE3=Peggy
TTITLE4=Kolej Albertov
TTITLE5=Prazdny Kamion
TTITLE6=Je To Trest
TTITLE7=Necitim Se Sam
TTITLE8=Motel Nonstop
TTITLE9=Kousky Snu
TTITLE10=Lady
TTITLE11=Mistr Zkratky
TTITLE12=To Jsem Asi Rikat Nemel
TTITLE13=Az Me Andele
TTITLE14=Svet Se Kouli Dal
TTITLE15=Lod Blaznu
TTITLE16=Dalka
TTITLE17=Na Tyhle Planete Uz Zustanu
TTITLE18=Vsichni Uz Jsou Za Vodou
TTITLE19=Obycejna Zena
TTITLE20=Porad Ti To Slusi
TTITLE21=Sedesaty leta
EXTD=
EXTT0=
EXTT1=
EXTT2=
EXTT3=
EXTT4=
EXTT5=
EXTT6=
EXTT7=
EXTT8=
EXTT9=
EXTT10=
EXTT11=
EXTT12=
EXTT13=
EXTT14=
EXTT15=
EXTT16=
EXTT17=
EXTT18=
EXTT19=
EXTT20=
EXTT21=
PLAYORDER=
